<svg width="60" height="60" viewBox="0 0 60 60" fill="none" xmlns="http://www.w3.org/2000/svg">
<circle cx="30" cy="30" r="30" fill="url(#paint0_linear_5033_6871)"/>
<path fill-rule="evenodd" clip-rule="evenodd" d="M29.9805 23.0579C28.7883 23.0579 28.1902 24.5022 29.0331 25.3452C29.1884 25.5004 29.1884 25.7523 29.0331 25.9075L28.177 26.7637C28.0217 26.919 27.7698 26.919 27.6146 26.7637C26.7717 25.9208 25.3273 26.5189 25.3273 27.7111C25.3273 27.9308 25.1493 28.1088 24.9296 28.1088H23.7189C23.4994 28.1088 23.3212 27.9308 23.3212 27.7111C23.3212 26.5175 21.878 25.9197 21.034 26.7637C20.8787 26.919 20.6269 26.919 20.4716 26.7637L19.6155 25.9075C19.4602 25.7523 19.4602 25.5004 19.6155 25.3452C20.4584 24.5022 19.8602 23.0579 18.6681 23.0579C18.4484 23.0579 18.2704 22.8798 18.2704 22.6602V21.4495C18.2704 21.2299 18.4484 21.0518 18.6681 21.0518C19.8602 21.0518 20.4584 19.6075 19.6155 18.7646C19.4602 18.6093 19.4602 18.3575 19.6155 18.2022L20.4716 17.3461C20.6269 17.1908 20.8788 17.1908 21.034 17.3461C21.8769 18.189 23.3212 17.5909 23.3212 16.3987C23.3212 16.179 23.4993 16.001 23.7189 16.001H24.9296C25.1493 16.001 25.3273 16.1789 25.3273 16.3987C25.3273 17.5909 26.7716 18.189 27.6146 17.3461C27.7699 17.1908 28.0217 17.1908 28.177 17.3461L29.0331 18.2022C29.1884 18.3575 29.1884 18.6093 29.0331 18.7646C28.1902 19.6075 28.7883 21.0518 29.9805 21.0518C30.2002 21.0518 30.3782 21.2299 30.3782 21.4495V22.6602C30.3782 22.8798 30.2002 23.0579 29.9805 23.0579ZM38.7245 38.9462L41.0513 40.2895C41.4234 40.5044 41.9 40.3743 42.1138 40.0021C42.328 39.6296 42.1981 39.1537 41.8264 38.939L39.4997 37.5957C39.1275 37.3808 38.6509 37.5109 38.4371 37.883C38.2229 38.2556 38.3528 38.7315 38.7245 38.9462ZM39.4997 31.2255L41.8264 29.8822C42.1981 29.6676 42.3279 29.1917 42.1138 28.8191C41.9 28.447 41.4234 28.3169 41.0513 28.5318L38.7245 29.8751C38.3528 30.0897 38.2229 30.5656 38.437 30.9382C38.6509 31.3103 39.1275 31.4403 39.4997 31.2255ZM40.7981 35.1934H43.3451C43.7774 35.1934 44.1278 34.843 44.1278 34.4106C44.1278 33.9782 43.7774 33.6278 43.3451 33.6278H40.7981C40.3658 33.6278 40.0153 33.9782 40.0153 34.4106C40.0154 34.8429 40.3658 35.1934 40.7981 35.1934ZM36.6278 36.4934C36.7205 36.5059 36.8152 36.5124 36.9114 36.5124C38.0722 36.5124 39.0132 35.5714 39.0132 34.4105C39.0132 33.2497 38.0722 32.3087 36.9114 32.3087C36.8152 32.3087 36.7205 32.3152 36.6278 32.3277V27.1245C36.6278 26.1475 35.8285 25.3483 34.8516 25.3483C33.9329 25.3483 33.1713 26.0551 33.0838 26.9519L33.0837 26.9519C30.8208 28.7615 27.3633 30.2066 23.432 30.8152V38.0064C27.3636 38.618 30.8229 40.0802 33.0858 41.8899L33.086 41.89C33.183 42.7769 33.9399 43.4729 34.8516 43.4729C35.8284 43.4729 36.6278 42.6737 36.6278 41.6967V36.4934ZM22.2601 37.851V38.2213H22.2313H19.4658H18.8108C16.7148 38.2213 15 36.5064 15 34.4105V34.4104C15 32.3145 16.7149 30.5997 18.8108 30.5997H22.2601V30.97V37.851ZM22.3871 39.3932L22.9492 43.6188C23.001 44.0081 22.7443 44.3686 22.3605 44.4518L21.1632 44.7112C20.9494 44.7575 20.7479 44.7166 20.569 44.5906C20.3902 44.4646 20.2847 44.2885 20.2554 44.0716L19.624 39.3932H22.3871ZM24.3243 19.5189C22.9237 19.5189 21.7883 20.6543 21.7883 22.0549C21.7883 23.4554 22.9237 24.5909 24.3243 24.5909C25.7249 24.5909 26.8603 23.4554 26.8603 22.0549C26.8603 20.6543 25.7248 19.5189 24.3243 19.5189Z" fill="#F2F7E0"/>
<defs>
<linearGradient id="paint0_linear_5033_6871" x1="30" y1="0" x2="30" y2="60" gradientUnits="userSpaceOnUse">
<stop stop-color="#2789D0"/>
<stop offset="1" stop-color="#2E3094"/>
</linearGradient>
</defs>
</svg>
