<svg width="60" height="60" viewBox="0 0 60 60" fill="none" xmlns="http://www.w3.org/2000/svg">
<circle cx="30" cy="30" r="30" fill="url(#paint0_linear_5033_5413)"/>
<g clip-path="url(#clip0_5033_5413)">
<path d="M43.2123 27.8353C43.0985 27.8353 42.9887 27.7939 42.9032 27.7189C42.8176 27.6439 42.7623 27.5404 42.7475 27.4276C42.7326 27.3149 42.7593 27.2006 42.8225 27.106C42.8857 27.0114 42.9812 26.9431 43.091 26.9137L43.8635 26.7064C43.9834 26.6749 44.1108 26.6921 44.2179 26.7543C44.3251 26.8165 44.4033 26.9186 44.4354 27.0383C44.4675 27.1579 44.4509 27.2854 44.3893 27.3929C44.3277 27.5004 44.226 27.5791 44.1065 27.6118L43.334 27.8191C43.2943 27.8298 43.2534 27.8352 43.2123 27.8353ZM44.0582 29.9297C44.1202 29.8219 44.1369 29.694 44.1045 29.5739C44.0722 29.4539 43.9935 29.3516 43.8857 29.2896L43.193 28.8912C43.1396 28.8605 43.0808 28.8406 43.0197 28.8326C42.9587 28.8247 42.8967 28.8288 42.8372 28.8448C42.7778 28.8609 42.7221 28.8884 42.6733 28.926C42.6245 28.9635 42.5836 29.0103 42.5529 29.0636C42.5222 29.117 42.5023 29.1759 42.4943 29.2369C42.4864 29.298 42.4905 29.36 42.5065 29.4194C42.5226 29.4789 42.5501 29.5346 42.5877 29.5833C42.6252 29.6321 42.672 29.673 42.7254 29.7037L43.4182 30.1022C43.5259 30.1642 43.6539 30.1808 43.7739 30.1485C43.8939 30.1161 43.9962 30.0374 44.0582 29.9297ZM42.4331 26.0578L42.8335 25.3651C42.8643 25.3118 42.8843 25.253 42.8924 25.192C42.9005 25.1309 42.8964 25.0689 42.8805 25.0094C42.8647 24.95 42.8372 24.8942 42.7997 24.8454C42.7623 24.7965 42.7156 24.7555 42.6623 24.7247C42.609 24.6939 42.5502 24.6739 42.4891 24.6658C42.4281 24.6577 42.3661 24.6618 42.3066 24.6777C42.2472 24.6936 42.1914 24.721 42.1425 24.7585C42.0937 24.7959 42.0527 24.8426 42.0219 24.8959L41.6214 25.5887C41.5902 25.642 41.5698 25.7009 41.5614 25.7622C41.553 25.8234 41.5568 25.8857 41.5726 25.9454C41.5884 26.0052 41.6158 26.0612 41.6533 26.1104C41.6908 26.1595 41.7377 26.2007 41.7912 26.2316C41.8447 26.2625 41.9038 26.2826 41.9651 26.2906C42.0264 26.2986 42.0886 26.2944 42.1483 26.2782C42.208 26.2621 42.2638 26.2343 42.3127 26.1965C42.3616 26.1586 42.4025 26.1115 42.4331 26.0578ZM20.4684 24.9581L19.8921 24.859C19.8213 24.8468 19.7543 24.8186 19.6962 24.7764C19.638 24.7342 19.5904 24.6792 19.5569 24.6156L19.2841 24.0983L19.0114 24.6156C18.9779 24.6792 18.9302 24.7342 18.8721 24.7764C18.814 24.8186 18.7469 24.8468 18.6761 24.859L18.1 24.9581L18.5079 25.3779C18.5578 25.4294 18.5953 25.4917 18.6175 25.5599C18.6396 25.6282 18.6458 25.7006 18.6356 25.7716L18.5519 26.35L19.0775 26.0917C19.1419 26.0601 19.2126 26.0437 19.2843 26.0437C19.356 26.0437 19.4268 26.0601 19.4911 26.0917L20.0158 26.3498L19.9329 25.7709C19.9227 25.7 19.9289 25.6277 19.9511 25.5595C19.9732 25.4913 20.0107 25.4292 20.0606 25.3778L20.4684 24.9581ZM32.3071 20.905V16.3678C32.3074 16.1294 32.4021 15.9009 32.5707 15.7324C32.7392 15.5638 32.9677 15.469 33.206 15.4688H38.8825C39.1209 15.469 39.3494 15.5638 39.5179 15.7324C39.6865 15.9009 39.7813 16.1294 39.7815 16.3678V20.905C39.7815 21.1436 39.6868 21.3724 39.5183 21.5413C39.3498 21.7102 39.1211 21.8053 38.8825 21.8058H35.2878C35.2242 21.8059 35.1613 21.8188 35.1029 21.844C35.0444 21.8691 34.9917 21.9058 34.948 21.952L34.2562 22.6813V22.2746C34.2562 22.1503 34.2068 22.031 34.1189 21.9431C34.031 21.8552 33.9118 21.8058 33.7875 21.8058H33.206C32.9675 21.8053 32.7388 21.7102 32.5703 21.5413C32.4018 21.3724 32.3071 21.1436 32.3071 20.905ZM33.4691 17.4199C33.4691 17.5442 33.5185 17.6635 33.6064 17.7514C33.6943 17.8393 33.8136 17.8887 33.9379 17.8887H38.1508C38.2751 17.8887 38.3943 17.8393 38.4822 17.7514C38.5701 17.6635 38.6195 17.5442 38.6195 17.4199C38.6195 17.2956 38.5701 17.1764 38.4822 17.0885C38.3943 17.0006 38.2751 16.9512 38.1508 16.9512H33.9379C33.8136 16.9512 33.6943 17.0006 33.6064 17.0885C33.5185 17.1764 33.4691 17.2956 33.4691 17.4199ZM33.4691 19.8525C33.4691 19.9768 33.5185 20.096 33.6064 20.184C33.6943 20.2719 33.8136 20.3212 33.9379 20.3212H38.1508C38.2751 20.3212 38.3943 20.2719 38.4822 20.184C38.5701 20.096 38.6195 19.9768 38.6195 19.8525C38.6195 19.7282 38.5701 19.609 38.4822 19.521C38.3943 19.4331 38.2751 19.3838 38.1508 19.3838H33.9379C33.8763 19.3838 33.8153 19.3959 33.7584 19.4194C33.7016 19.443 33.6499 19.4776 33.6064 19.5211C33.5628 19.5647 33.5283 19.6163 33.5048 19.6732C33.4812 19.7301 33.4691 19.7911 33.4691 19.8527V19.8525ZM32.2413 28.6997C32.1765 28.7177 32.1213 28.7606 32.0879 28.819C32.0545 28.8774 32.0454 28.9466 32.0626 29.0117L32.734 31.5185C32.7516 31.5837 32.7943 31.6393 32.8528 31.6731C32.9113 31.7069 32.9808 31.7162 33.0461 31.6989L35.3749 31.0744L34.5718 28.0751L32.2413 28.6997ZM25.951 17.6742H28.7431C28.9258 17.6742 29.0366 17.5727 29.2017 17.3326H25.3986C25.5714 17.539 25.7435 17.6742 25.951 17.6742ZM41.125 27.3867C41.1045 27.375 41.0836 27.3642 41.0624 27.3545L41.357 28.4534C41.3705 28.4343 41.3834 28.4146 41.3952 28.3941C41.4925 28.2245 41.5187 28.0234 41.4681 27.8346C41.4174 27.6458 41.2941 27.4848 41.125 27.3867ZM34.7734 32.2063L35.7866 34.3666L36.2251 34.2494L35.6175 31.9802L34.7734 32.2063ZM35.474 27.8196L36.2841 30.8449C37.3908 30.6032 38.5373 30.6102 39.6409 30.8655L38.3707 26.1253C37.5451 26.9011 36.5548 27.4803 35.4738 27.8196H35.474ZM33.2884 32.6045C33.1874 32.6316 33.0832 32.6454 32.9786 32.6455C32.7163 32.6447 32.4616 32.5576 32.2537 32.3976C32.0458 32.2376 31.8964 32.0136 31.8285 31.7603L31.157 29.254C31.0762 28.9492 31.1191 28.6247 31.2765 28.3514C31.4338 28.078 31.6928 27.8779 31.997 27.7946L34.782 27.0483C34.8641 27.0263 34.9446 27.003 35.0246 26.9788V23.2333L34.1273 24.1792C34.0628 24.2473 33.9794 24.2944 33.8878 24.3145C33.7963 24.3346 33.7008 24.3269 33.6137 24.2922C33.5266 24.2575 33.4519 24.1974 33.3993 24.1199C33.3466 24.0423 33.3185 23.9507 33.3184 23.857V22.7437H33.206C32.7189 22.7429 32.252 22.5489 31.9077 22.2043C31.5634 21.8596 31.3699 21.3925 31.3696 20.9054V17.3326H30.5343C30.4721 17.3302 30.4104 17.344 30.3551 17.3726C30.2998 17.4011 30.2528 17.4435 30.2187 17.4956C30.1777 17.5536 30.1372 17.6162 30.0944 17.6824C29.8555 18.0525 29.4943 18.6117 28.7431 18.6117H25.951C25.1321 18.6117 24.6795 17.9634 24.3799 17.5345L24.3516 17.4942C24.3171 17.4426 24.2699 17.4007 24.2147 17.3725C24.1594 17.3442 24.0979 17.3305 24.0358 17.3326H21.1054C20.6914 17.333 20.2945 17.4977 20.0017 17.7905C19.709 18.0832 19.5443 18.4802 19.5438 18.8942V21.0227H22.1223C22.6092 21.0233 23.076 21.2169 23.4203 21.5612C23.7646 21.9055 23.9583 22.3723 23.9588 22.8592V27.3965C23.9583 27.8834 23.7646 28.3502 23.4203 28.6945C23.076 29.0388 22.6092 29.2325 22.1223 29.233H22.01V30.3482C22.01 30.4419 21.9818 30.5335 21.9292 30.6111C21.8765 30.6887 21.8018 30.7488 21.7147 30.7835C21.6276 30.8182 21.5321 30.826 21.4405 30.8058C21.3489 30.7857 21.2655 30.7385 21.201 30.6704L19.839 29.233H19.5438V41.2837H21.7405V37.1461C21.7405 35.5063 23.1612 34.1722 24.9075 34.1722H25.4104C25.215 33.968 25.0421 33.7434 24.8948 33.5023C24.4026 32.7039 24.1091 31.6254 24.1091 30.6175C24.1091 30.1583 24.1996 29.7036 24.3753 29.2794C24.551 28.8552 24.8086 28.4697 25.1332 28.145C25.4579 27.8203 25.8434 27.5628 26.2676 27.387C26.6918 27.2113 27.1465 27.1209 27.6057 27.1209C28.0649 27.1209 28.5196 27.2113 28.9438 27.387C29.368 27.5628 29.7535 27.8203 30.0782 28.145C30.4028 28.4697 30.6604 28.8552 30.8361 29.2794C31.0118 29.7036 31.1023 30.1583 31.1023 30.6175C31.1023 31.9325 30.6553 33.2971 29.8012 34.1722H30.304C32.0501 34.1722 33.4711 35.5063 33.4711 37.1461V41.2837H35.0246V34.9498L33.8535 32.453L33.2884 32.6045ZM22.678 37.1461V41.2837H23.9553V38.6928C23.9553 38.5685 24.0047 38.4492 24.0926 38.3613C24.1805 38.2734 24.2997 38.224 24.4241 38.224C24.5484 38.224 24.6676 38.2734 24.7555 38.3613C24.8434 38.4492 24.8928 38.5685 24.8928 38.6928V41.2837H30.3174V38.6928C30.3174 38.5685 30.3668 38.4492 30.4547 38.3613C30.5426 38.2734 30.6619 38.224 30.7862 38.224C30.9105 38.224 31.0297 38.2734 31.1176 38.3613C31.2055 38.4492 31.2549 38.5685 31.2549 38.6928V41.2837H32.5338V37.1461C32.5338 36.0232 31.5337 35.1097 30.3042 35.1097H24.9078C23.6781 35.1097 22.678 36.0234 22.678 37.1461ZM38.9352 24.6106L40.8871 31.8938L41.2807 31.789L39.328 24.5048L38.9352 24.6106ZM20.0406 28.2955H16.4459C16.2075 28.2952 15.979 28.2004 15.8105 28.0319C15.6419 27.8634 15.5471 27.6349 15.5469 27.3965V22.8592C15.5471 22.6209 15.6419 22.3924 15.8105 22.2238C15.979 22.0553 16.2075 21.9605 16.4459 21.9602H22.1223C22.3607 21.9605 22.5892 22.0553 22.7577 22.2238C22.9263 22.3924 23.0211 22.6209 23.0213 22.8592V27.3965C23.021 27.6348 22.9262 27.8634 22.7577 28.0319C22.5892 28.2004 22.3607 28.2952 22.1223 28.2955H21.5413C21.4169 28.2955 21.2977 28.3449 21.2098 28.4328C21.1219 28.5207 21.0725 28.6399 21.0725 28.7643V29.1718L20.3811 28.4419C20.3373 28.3956 20.2845 28.3588 20.2259 28.3336C20.1674 28.3084 20.1043 28.2955 20.0406 28.2955ZM19.284 27.0348L20.3988 27.5832C20.4754 27.6209 20.5608 27.6369 20.6457 27.6297C20.7307 27.6224 20.8121 27.592 20.8812 27.5419C20.9502 27.4918 21.0042 27.4238 21.0375 27.3452C21.0707 27.2667 21.0819 27.1805 21.0697 27.0961L20.8934 25.866L21.7606 24.9735C21.8201 24.9123 21.8617 24.836 21.881 24.7528C21.9003 24.6697 21.8966 24.5829 21.8701 24.5017C21.8437 24.4206 21.7956 24.3482 21.7311 24.2923C21.6665 24.2365 21.588 24.1993 21.5039 24.1849L20.2787 23.9742L19.6989 22.8745C19.6591 22.799 19.5994 22.7358 19.5264 22.6917C19.4533 22.6476 19.3696 22.6243 19.2842 22.6243C19.1989 22.6243 19.1151 22.6476 19.0421 22.6917C18.969 22.7358 18.9093 22.799 18.8696 22.8745L18.2897 23.9742L17.0645 24.1849C16.9804 24.1993 16.9018 24.2365 16.8373 24.2923C16.7727 24.3481 16.7246 24.4205 16.6982 24.5017C16.6718 24.5828 16.668 24.6697 16.6873 24.7528C16.7066 24.836 16.7482 24.9123 16.8077 24.9735L17.6745 25.8657L17.4965 27.0956C17.4843 27.18 17.4953 27.2662 17.5285 27.3448C17.5617 27.4234 17.6157 27.4915 17.6847 27.5417C17.7537 27.5919 17.8351 27.6223 17.9201 27.6296C18.0051 27.637 18.0905 27.621 18.1671 27.5834L19.284 27.0348ZM27.2255 29.3151C28.358 30.2043 29.1801 30.4401 30.1634 30.5611C30.1494 29.9181 29.8937 29.3039 29.4472 28.841C29.0008 28.378 28.3964 28.1002 27.7543 28.0628C27.1122 28.0254 26.4796 28.2312 25.9825 28.6393C25.4853 29.0473 25.1601 29.6276 25.0716 30.2647L26.6933 29.2828C26.7748 29.2334 26.8694 29.2101 26.9645 29.2159C27.0596 29.2217 27.1506 29.2563 27.2255 29.3151ZM27.6057 34.1722C29.1049 34.1722 29.8474 32.7622 30.0808 31.4952C29.0544 31.3709 28.1013 31.124 26.9065 30.2496L25.104 31.341C25.1897 31.9305 25.3898 32.4976 25.693 33.0105C26.1679 33.7813 26.8115 34.1722 27.6057 34.1722ZM19.5438 42.2212H35.0246V42.9697C35.0241 43.3837 34.8594 43.7806 34.5666 44.0733C34.2738 44.3661 33.8769 44.5308 33.4629 44.5312H21.1055C20.6915 44.5308 20.2946 44.3661 20.0018 44.0733C19.709 43.7806 19.5443 43.3837 19.5438 42.9697L19.5438 42.2212ZM25.6824 43.377C25.6824 43.5013 25.7318 43.6205 25.8197 43.7084C25.9076 43.7963 26.0269 43.8457 26.1512 43.8457H28.4172C28.5415 43.8457 28.6607 43.7963 28.7486 43.7084C28.8365 43.6205 28.8859 43.5013 28.8859 43.377C28.8859 43.2526 28.8365 43.1334 28.7486 43.0455C28.6607 42.9576 28.5415 42.9082 28.4172 42.9082H26.1512C26.0269 42.9082 25.9076 42.9576 25.8197 43.0455C25.7318 43.1334 25.6824 43.2526 25.6824 43.377Z" fill="#F2F7E0"/>
</g>
<defs>
<linearGradient id="paint0_linear_5033_5413" x1="30" y1="0" x2="30" y2="60" gradientUnits="userSpaceOnUse">
<stop stop-color="#2789D0"/>
<stop offset="1" stop-color="#2E3094"/>
</linearGradient>
<clipPath id="clip0_5033_5413">
<rect width="30" height="30" fill="white" transform="translate(15 15)"/>
</clipPath>
</defs>
</svg>
