<svg width="60" height="60" viewBox="0 0 60 60" fill="none" xmlns="http://www.w3.org/2000/svg">
<circle cx="30" cy="30" r="30" fill="url(#paint0_linear_5033_9687)"/>
<g clip-path="url(#clip0_5033_9687)">
<path d="M24.5628 15.6249C24.4253 15.6249 24.9253 15.6249 16.8753 15.6249C16.569 15.6249 16.1628 15.2499 20.6253 18.5936L24.5628 15.6249Z" fill="#F2F7E0"/>
<path d="M25.625 21.8744C25.625 16.4432 25.6562 16.7369 25.55 16.4619C20.5875 20.1807 20.9188 19.9994 20.625 19.9994C20.3313 19.9994 20.625 20.1494 15.7 16.4619C15.625 16.7432 15.625 16.4744 15.625 21.8744C15.625 22.2059 15.7567 22.5239 15.9911 22.7583C16.2255 22.9927 16.5435 23.1244 16.875 23.1244H24.375C24.7065 23.1244 25.0245 22.9927 25.2589 22.7583C25.4933 22.5239 25.625 22.2059 25.625 21.8744Z" fill="#F2F7E0"/>
<path d="M38.75 20.2439L40.475 19.3752L38.75 18.5127V20.2439Z" fill="#F2F7E0"/>
<path d="M43.125 15.625H35.625C35.2935 15.625 34.9755 15.7567 34.7411 15.9911C34.5067 16.2255 34.375 16.5435 34.375 16.875V21.875C34.375 22.2065 34.5067 22.5245 34.7411 22.7589C34.9755 22.9933 35.2935 23.125 35.625 23.125H43.125C43.4565 23.125 43.7745 22.9933 44.0089 22.7589C44.2433 22.5245 44.375 22.2065 44.375 21.875V16.875C44.375 16.5435 44.2433 16.2255 44.0089 15.9911C43.7745 15.7567 43.4565 15.625 43.125 15.625ZM41.0375 20.4938C39.1625 21.4187 39.1625 21.4875 38.75 21.4875C38.4185 21.4875 38.1005 21.3558 37.8661 21.1214C37.6317 20.887 37.5 20.569 37.5 20.2375C37.5 18.7125 37.325 17.925 38.125 17.45C38.925 16.975 39.4437 17.45 41.0687 18.2562C41.2753 18.3628 41.4481 18.5248 41.5677 18.7242C41.6873 18.9235 41.7489 19.1522 41.7457 19.3847C41.7424 19.6171 41.6745 19.844 41.5494 20.0399C41.4242 20.2359 41.247 20.393 41.0375 20.4938Z" fill="#F2F7E0"/>
<path d="M39.375 40.625C40.0654 40.625 40.625 40.0654 40.625 39.375C40.625 38.6846 40.0654 38.125 39.375 38.125C38.6846 38.125 38.125 38.6846 38.125 39.375C38.125 40.0654 38.6846 40.625 39.375 40.625Z" fill="#F2F7E0"/>
<path d="M43.7937 38.125C43.6784 38.1256 43.5654 38.0918 43.4693 38.028C43.3731 37.9642 43.2982 37.8732 43.2539 37.7666C43.2097 37.66 43.1982 37.5427 43.2208 37.4295C43.2435 37.3164 43.2994 37.2125 43.3813 37.1312C43.4893 37.0224 43.5499 36.8752 43.5499 36.7219C43.5499 36.5685 43.4893 36.4214 43.3813 36.3125L42.4375 35.3688C42.3844 35.3137 42.3209 35.27 42.2505 35.2401C42.1802 35.2102 42.1045 35.1948 42.0281 35.1948C41.9517 35.1948 41.8761 35.2102 41.8057 35.2401C41.7354 35.27 41.6718 35.3137 41.6188 35.3688C41.5375 35.4506 41.4336 35.5065 41.3205 35.5292C41.2073 35.5518 41.09 35.5403 40.9834 35.4961C40.8768 35.4518 40.7858 35.3769 40.722 35.2807C40.6582 35.1846 40.6244 35.0716 40.625 34.9563C40.625 34.8021 40.5638 34.6542 40.4548 34.5452C40.3457 34.4362 40.1979 34.375 40.0437 34.375H38.7063C38.5521 34.375 38.4043 34.4362 38.2952 34.5452C38.1862 34.6542 38.125 34.8021 38.125 34.9563C38.1256 35.0716 38.0918 35.1846 38.028 35.2807C37.9642 35.3769 37.8732 35.4518 37.7666 35.4961C37.66 35.5403 37.5427 35.5518 37.4295 35.5292C37.3164 35.5065 37.2125 35.4506 37.1312 35.3688C37.0782 35.3137 37.0146 35.27 36.9443 35.2401C36.8739 35.2102 36.7983 35.1948 36.7219 35.1948C36.6455 35.1948 36.5698 35.2102 36.4995 35.2401C36.4291 35.27 36.3656 35.3137 36.3125 35.3688L35.3688 36.3125C35.3145 36.366 35.2715 36.4297 35.2421 36.5C35.2127 36.5703 35.1975 36.6457 35.1975 36.7219C35.1975 36.7981 35.2127 36.8735 35.2421 36.9437C35.2715 37.014 35.3145 37.0778 35.3688 37.1312C35.4477 37.2137 35.5009 37.3173 35.5219 37.4294C35.5429 37.5416 35.5308 37.6575 35.4871 37.7629C35.4433 37.8682 35.3698 37.9586 35.2756 38.0229C35.1813 38.0872 35.0703 38.1227 34.9563 38.125C34.8021 38.125 34.6542 38.1862 34.5452 38.2952C34.4362 38.4043 34.375 38.5521 34.375 38.7063V40.0437C34.375 40.1979 34.4362 40.3457 34.5452 40.4548C34.6542 40.5638 34.8021 40.625 34.9563 40.625C35.0716 40.6244 35.1846 40.6582 35.2807 40.722C35.3769 40.7858 35.4518 40.8768 35.4961 40.9834C35.5403 41.09 35.5518 41.2073 35.5292 41.3205C35.5065 41.4336 35.4506 41.5375 35.3688 41.6188C35.3137 41.6718 35.27 41.7354 35.2401 41.8057C35.2102 41.8761 35.1948 41.9517 35.1948 42.0281C35.1948 42.1045 35.2102 42.1802 35.2401 42.2505C35.27 42.3209 35.3137 42.3844 35.3688 42.4375L36.3125 43.3813C36.3656 43.4363 36.4291 43.48 36.4995 43.5099C36.5698 43.5398 36.6455 43.5552 36.7219 43.5552C36.7983 43.5552 36.8739 43.5398 36.9443 43.5099C37.0146 43.48 37.0782 43.4363 37.1312 43.3813C37.2125 43.2994 37.3164 43.2435 37.4295 43.2208C37.5427 43.1982 37.66 43.2097 37.7666 43.2539C37.8732 43.2982 37.9642 43.3731 38.028 43.4693C38.0918 43.5654 38.1256 43.6784 38.125 43.7937C38.125 43.9479 38.1862 44.0957 38.2952 44.2048C38.4043 44.3138 38.5521 44.375 38.7063 44.375H40.0437C40.1979 44.375 40.3457 44.3138 40.4548 44.2048C40.5638 44.0957 40.625 43.9479 40.625 43.7937C40.6244 43.6784 40.6582 43.5654 40.722 43.4693C40.7858 43.3731 40.8768 43.2982 40.9834 43.2539C41.09 43.2097 41.2073 43.1982 41.3205 43.2208C41.4336 43.2435 41.5375 43.2994 41.6188 43.3813C41.6718 43.4363 41.7354 43.48 41.8057 43.5099C41.8761 43.5398 41.9517 43.5552 42.0281 43.5552C42.1045 43.5552 42.1802 43.5398 42.2505 43.5099C42.3209 43.48 42.3844 43.4363 42.4375 43.3813L43.3813 42.4375C43.4363 42.3844 43.48 42.3209 43.5099 42.2505C43.5398 42.1802 43.5552 42.1045 43.5552 42.0281C43.5552 41.9517 43.5398 41.8761 43.5099 41.8057C43.48 41.7354 43.4363 41.6718 43.3813 41.6188C43.2994 41.5375 43.2435 41.4336 43.2208 41.3205C43.1982 41.2073 43.2097 41.09 43.2539 40.9834C43.2982 40.8768 43.3731 40.7858 43.4693 40.722C43.5654 40.6582 43.6784 40.6244 43.7937 40.625C43.9479 40.625 44.0957 40.5638 44.2048 40.4548C44.3138 40.3457 44.375 40.1979 44.375 40.0437V38.7063C44.375 38.5521 44.3138 38.4043 44.2048 38.2952C44.0957 38.1862 43.9479 38.125 43.7937 38.125ZM39.375 41.875C38.8805 41.875 38.3972 41.7284 37.9861 41.4537C37.575 41.179 37.2545 40.7885 37.0653 40.3317C36.8761 39.8749 36.8266 39.3722 36.923 38.8873C37.0195 38.4023 37.2576 37.9569 37.6072 37.6072C37.9569 37.2576 38.4023 37.0195 38.8873 36.923C39.3722 36.8266 39.8749 36.8761 40.3317 37.0653C40.7885 37.2545 41.179 37.575 41.4537 37.9861C41.7284 38.3972 41.875 38.8805 41.875 39.375C41.875 40.038 41.6116 40.6739 41.1428 41.1428C40.6739 41.6116 40.038 41.875 39.375 41.875Z" fill="#F2F7E0"/>
<path d="M19.6378 34.7314L17.4253 36.9377C17.0742 37.2893 16.877 37.7658 16.877 38.2627C16.877 38.7596 17.0742 39.2361 17.4253 39.5877L19.1941 41.3564C19.5456 41.7076 20.0222 41.9048 20.5191 41.9048C21.0159 41.9048 21.4925 41.7076 21.8441 41.3564L24.0566 39.1502L19.6378 34.7314Z" fill="#F2F7E0"/>
<path d="M24.493 40.4746L22.7305 42.2434L24.493 44.0059C24.7332 44.2026 25.038 44.3028 25.348 44.2872C25.6581 44.2715 25.9512 44.141 26.1704 43.9211C26.3895 43.7011 26.519 43.4075 26.5336 43.0974C26.5481 42.7873 26.4468 42.4829 26.2492 42.2434L24.493 40.4746Z" fill="#F2F7E0"/>
<path d="M20.3633 33.6877L25.0945 38.4189L32.8945 34.7252L24.057 25.8877L20.3633 33.6877Z" fill="#F2F7E0"/>
<path d="M27.8242 27.894L30.8867 30.9565C31.0005 30.5325 31.0006 30.086 30.8871 29.662C30.7735 29.2379 30.5503 28.8512 30.2399 28.5408C29.9295 28.2304 29.5428 28.0072 29.1187 27.8937C28.6947 27.7801 28.2482 27.7802 27.8242 27.894Z" fill="#F2F7E0"/>
<path d="M32.0057 27.4C32.3495 27.4 32.362 27.3 33.7745 25.8875C33.8922 25.7706 33.9586 25.6118 33.9592 25.4459C33.9598 25.2801 33.8945 25.1208 33.7776 25.0031C33.6607 24.8854 33.5019 24.8189 33.3361 24.8184C33.1702 24.8178 33.0109 24.8831 32.8932 25L31.5682 26.325C31.4783 26.4116 31.4164 26.5233 31.3905 26.6455C31.3646 26.7677 31.376 26.8949 31.4231 27.0106C31.4701 27.1263 31.5508 27.2252 31.6547 27.2946C31.7585 27.364 31.8808 27.4007 32.0057 27.4Z" fill="#F2F7E0"/>
<path d="M30 25.625V23.75C30 23.5842 29.9342 23.4253 29.8169 23.3081C29.6997 23.1908 29.5408 23.125 29.375 23.125C29.2092 23.125 29.0503 23.1908 28.9331 23.3081C28.8158 23.4253 28.75 23.5842 28.75 23.75V25.625C28.75 25.7908 28.8158 25.9497 28.9331 26.0669C29.0503 26.1842 29.2092 26.25 29.375 26.25C29.5408 26.25 29.6997 26.1842 29.8169 26.0669C29.9342 25.9497 30 25.7908 30 25.625Z" fill="#F2F7E0"/>
<path d="M35 28.75H33.125C32.9592 28.75 32.8003 28.8158 32.6831 28.9331C32.5658 29.0503 32.5 29.2092 32.5 29.375C32.5 29.5408 32.5658 29.6997 32.6831 29.8169C32.8003 29.9342 32.9592 30 33.125 30H35C35.1658 30 35.3247 29.9342 35.4419 29.8169C35.5592 29.6997 35.625 29.5408 35.625 29.375C35.625 29.2092 35.5592 29.0503 35.4419 28.9331C35.3247 28.8158 35.1658 28.75 35 28.75Z" fill="#F2F7E0"/>
</g>
<defs>
<linearGradient id="paint0_linear_5033_9687" x1="30" y1="0" x2="30" y2="60" gradientUnits="userSpaceOnUse">
<stop stop-color="#2789D0"/>
<stop offset="1" stop-color="#2E3094"/>
</linearGradient>
<clipPath id="clip0_5033_9687">
<rect width="30" height="30" fill="white" transform="translate(15 15)"/>
</clipPath>
</defs>
</svg>
