<svg width="60" height="60" viewBox="0 0 60 60" fill="none" xmlns="http://www.w3.org/2000/svg">
<circle cx="30" cy="30" r="30" fill="url(#paint0_linear_4877_10522)"/>
<g clip-path="url(#clip0_4877_10522)">
<path d="M21.3559 37.955C22.0715 37.1022 22.9337 36.3501 23.9243 35.734L25.7318 34.61C24.8784 33.6216 24.3615 32.3349 24.3615 30.9296C24.3615 27.8205 26.891 25.2911 30 25.2911C33.1091 25.2911 35.6385 27.8205 35.6385 30.9296C35.6385 32.3361 35.1209 33.6238 34.2661 34.6126L36.0532 35.7365C37.0539 36.3658 37.9246 37.1265 38.647 37.9828L38.2711 34.1946L45.0001 26.6334L35.1117 24.4715L30 15.7354L24.8883 24.4715L15 26.6334L21.729 34.1945L21.3559 37.955Z" fill="#F2F7E0"/>
<path d="M39.2656 44.2122L39.1495 43.0429C38.7406 40.7187 37.2948 38.6122 35.1095 37.2378L32.8309 35.8047C31.9985 36.2899 31.0315 36.5683 30.0006 36.5683C28.9695 36.5683 28.0024 36.2899 27.17 35.8047L24.8613 37.2403C22.5758 38.6616 21.1092 40.9424 20.8091 43.47L20.7781 43.7826C20.7655 43.9399 20.7574 44.0979 20.7539 44.2567L30.0005 40.2041L39.2665 44.2652C39.2662 44.2474 39.266 44.2298 39.2656 44.2122Z" fill="#F2F7E0"/>
<path d="M29.9998 34.7945C32.1344 34.7945 33.8648 33.0641 33.8648 30.9295C33.8648 28.7949 32.1344 27.0645 29.9998 27.0645C27.8652 27.0645 26.1348 28.7949 26.1348 30.9295C26.1348 33.0641 27.8652 34.7945 29.9998 34.7945Z" fill="#F2F7E0"/>
</g>
<defs>
<linearGradient id="paint0_linear_4877_10522" x1="30" y1="0" x2="30" y2="60" gradientUnits="userSpaceOnUse">
<stop stop-color="#2789D0"/>
<stop offset="1" stop-color="#2E3094"/>
</linearGradient>
<clipPath id="clip0_4877_10522">
<rect width="30" height="30" fill="white" transform="translate(15 15)"/>
</clipPath>
</defs>
</svg>
