<svg width="60" height="60" viewBox="0 0 60 60" fill="none" xmlns="http://www.w3.org/2000/svg">
<circle cx="30" cy="30" r="30" fill="url(#paint0_linear_4877_948)"/>
<g clip-path="url(#clip0_4877_948)">
<path fill-rule="evenodd" clip-rule="evenodd" d="M15.5859 40.3465H32.0474V36.6742C32.0474 35.9633 32.6304 35.3803 33.3412 35.3803H34.2763C34.1302 32.3026 31.403 30.4042 28.0744 29.6883C27.2273 30.4756 26.1694 30.9872 24.9469 31.0088C23.7627 31.0088 22.6515 30.4856 21.7928 29.6883C18.373 30.4258 15.5859 32.4089 15.5859 35.6411V40.3465ZM36.8923 15.9624C37.4304 15.4591 38.2675 15.4591 38.8073 15.9624C39.1678 16.3013 39.6328 16.4258 40.1128 16.3129C40.832 16.1451 41.5578 16.5653 41.7721 17.2712C41.9149 17.743 42.2554 18.0834 42.7271 18.2262C43.433 18.4405 43.8532 19.1663 43.6854 19.8855C43.5725 20.3655 43.6971 20.8306 44.0359 21.191C44.5392 21.7308 44.5392 22.5679 44.0359 23.106C43.6971 23.4664 43.5725 23.9315 43.6854 24.4132C43.8532 25.1307 43.433 25.8565 42.7271 26.0708C42.2554 26.2137 41.9149 26.5542 41.7721 27.0275C41.5578 27.7334 40.832 28.152 40.1128 27.9842C39.6328 27.8729 39.1678 27.9975 38.8073 28.3347C38.2675 28.8396 37.4304 28.8396 36.8923 28.3347C36.5319 27.9975 36.0668 27.8729 35.5851 27.9842C34.8676 28.152 34.1418 27.7334 33.9275 27.0275C33.7846 26.5542 33.4441 26.2137 32.9708 26.0708C32.2649 25.8565 31.8463 25.1307 32.0141 24.4132C32.1254 23.9316 32.0008 23.4665 31.6637 23.106C31.1587 22.5679 31.1587 21.7308 31.6637 21.191C32.0008 20.8306 32.1254 20.3655 32.0141 19.8855C31.8463 19.1663 32.2649 18.4405 32.9708 18.2262C33.4442 18.0834 33.7847 17.7429 33.9275 17.2712C34.1418 16.5653 34.8676 16.1451 35.5851 16.3129C36.0667 16.4258 36.5318 16.3013 36.8923 15.9624ZM37.849 19.2212C39.4667 19.2212 40.7772 20.5316 40.7772 22.1494C40.7772 23.7672 39.4668 25.0776 37.849 25.0776C36.2312 25.0776 34.9208 23.7655 34.9208 22.1494C34.9208 20.5333 36.2329 19.2212 37.849 19.2212ZM36.0485 22.078C35.9522 21.9102 36.0103 21.6959 36.1781 21.5996C36.3458 21.5033 36.5601 21.5614 36.6564 21.7291L37.2078 22.6842L39.098 20.794C39.2358 20.6562 39.4584 20.6562 39.5946 20.794C39.7325 20.9302 39.7325 21.1528 39.5946 21.2907L37.3075 23.5595C37.1398 23.6558 36.9255 23.5977 36.8292 23.4299L36.0485 22.078ZM37.849 18.5186C39.8554 18.5186 41.4814 20.143 41.4814 22.1494C41.4814 24.1557 39.8554 25.7801 37.849 25.7801C35.8426 25.7801 34.2182 24.1541 34.2182 22.1494C34.2182 20.1447 35.8443 18.5186 37.849 18.5186ZM35.3991 36.6742C35.4041 36.3536 35.1284 36.0829 34.8095 36.0829C34.8095 36.0846 33.4658 36.0829 33.3412 36.0829C33.019 36.0829 32.7499 36.352 32.7499 36.6742L32.7516 43.8244C32.7516 44.1483 33.0173 44.4141 33.3412 44.4141H34.8095C35.1334 44.4141 35.3991 44.1483 35.3991 43.8244V36.6742ZM42.3385 42.5804H41.7439C41.5496 42.5804 41.3934 42.4226 41.3934 42.2283C41.3934 42.034 41.5496 41.8762 41.7439 41.8762H43.3168C44.2702 41.8762 44.2485 40.4428 43.3168 40.4428H42.0595C41.8651 40.4428 41.7073 40.2867 41.7073 40.0924C41.7073 39.8981 41.8651 39.7403 42.0595 39.7403H43.6307C44.5841 39.7403 44.5642 38.3069 43.6307 38.3069H42.3734C42.1791 38.3069 42.0213 38.1491 42.0213 37.9548C42.0213 37.7604 42.1791 37.6043 42.3734 37.6043H43.6307C44.5841 37.6043 44.5642 36.1709 43.6307 36.1709H41.8103C41.2772 36.1709 40.9168 35.6278 41.1244 35.1345L42.1209 32.7976C42.3834 32.1665 42.493 31.6349 42.4481 31.2065C42.3983 30.7098 42.1525 30.3909 41.7439 30.1584C41.415 29.9724 41.1459 29.9043 40.9433 30.1933C40.9334 30.2082 40.9217 30.2249 40.9101 30.2448L39.8753 32.781C39.6362 33.369 39.2159 33.8092 38.6396 34.0749C38.231 34.2626 37.4437 34.8705 36.8391 35.5166C36.4206 35.9651 36.1017 36.4102 36.1017 36.6892V43.1469C36.1017 43.6252 36.4937 44.0189 36.972 44.0189L42.3384 44.0139C43.2918 44.0139 43.2702 42.5805 42.3384 42.5805L42.3385 42.5804ZM24.9336 30.3062C22.0935 30.2547 20.2066 26.9993 20.2066 24.2854C20.2066 18.3442 29.6623 18.3442 29.6623 24.2854C29.6623 26.9993 27.7755 30.2547 24.9336 30.3062Z" fill="#F2F7E0"/>
</g>
<defs>
<linearGradient id="paint0_linear_4877_948" x1="30" y1="0" x2="30" y2="60" gradientUnits="userSpaceOnUse">
<stop stop-color="#2789D0"/>
<stop offset="1" stop-color="#2E3094"/>
</linearGradient>
<clipPath id="clip0_4877_948">
<rect width="30" height="30" fill="white" transform="translate(15 15)"/>
</clipPath>
</defs>
</svg>
