<svg width="60" height="60" viewBox="0 0 60 60" fill="none" xmlns="http://www.w3.org/2000/svg">
<circle cx="30" cy="30" r="30" fill="url(#paint0_linear_4877_6381)"/>
<g clip-path="url(#clip0_4877_6381)">
<path fill-rule="evenodd" clip-rule="evenodd" d="M22.3186 27.5427C24.4819 27.5427 26.2355 29.2749 26.2355 31.4115C26.2355 33.5482 24.4818 35.2804 22.3186 35.2804C20.1553 35.2804 18.4017 33.5483 18.4017 31.4115C18.4017 29.2749 20.1554 27.5427 22.3186 27.5427ZM42.2222 31.7779C41.9881 31.8405 41.7475 31.7013 41.6849 31.4672C41.6224 31.2331 41.7615 30.9925 41.9957 30.9299L43.6348 30.4907C43.869 30.4281 44.1096 30.5672 44.1721 30.8014C44.2347 31.0355 44.0955 31.2761 43.8614 31.3387L42.2222 31.7779ZM40.4517 29.2404C40.3891 29.4746 40.1486 29.6137 39.9144 29.5511C39.6802 29.4886 39.5411 29.248 39.6037 29.0138L40.0121 27.4895C40.0747 27.2553 40.3153 27.1162 40.5495 27.1787C40.7836 27.2413 40.9227 27.4818 40.8602 27.716L40.4517 29.2404ZM41.6691 30.3032L42.8466 29.1257C43.0182 28.9541 43.0182 28.6759 42.8466 28.5043C42.6751 28.3327 42.3968 28.3327 42.2252 28.5043L41.0477 29.6819C40.8761 29.8534 40.8761 30.1317 41.0477 30.3032C41.2192 30.4748 41.4974 30.4749 41.6691 30.3032ZM41.1093 34.6337C40.9377 34.4622 40.9377 34.1839 41.1093 34.0123C41.2808 33.8407 41.5591 33.8407 41.7306 34.0123L42.8466 35.1282C43.0181 35.2998 43.0181 35.578 42.8466 35.7496C42.675 35.9212 42.3967 35.9212 42.2251 35.7496L41.1093 34.6337ZM42.0263 33.3322C41.7922 33.2697 41.653 33.0291 41.7156 32.7949C41.7782 32.5608 42.0188 32.4216 42.2529 32.4842L43.8614 32.9152C44.0955 32.9778 44.2347 33.2184 44.1721 33.4525C44.1096 33.6867 43.869 33.8258 43.6348 33.7633L42.0263 33.3322ZM39.9066 37.2293C40.2578 37.1352 40.4682 36.7708 40.3741 36.4195L38.0738 27.8345C37.9797 27.4832 37.6153 27.2729 37.264 27.367C36.9127 27.4611 36.7023 27.8255 36.7965 28.1768L39.0968 36.7617C39.1909 37.113 39.5553 37.3234 39.9066 37.2293ZM32.1133 31.3788L30.2699 31.8727C29.8348 31.9893 29.575 32.4393 29.6916 32.8745L30.595 36.2459C30.7116 36.681 31.1616 36.9408 31.5967 36.8243L33.44 36.3303L32.1133 31.3788ZM34.3238 36.2372L32.9252 31.0175L36.1039 28.9881L38.0913 36.4054L34.3238 36.2372ZM40.4247 33.2127L39.7209 30.586C40.3277 30.8662 40.7488 31.4799 40.7488 32.1921C40.7488 32.5723 40.6288 32.9244 40.4247 33.2127ZM29.6231 36.0148C29.1104 35.9128 28.6717 35.5297 28.5279 34.993C28.3842 34.4562 28.5725 33.9052 28.9655 33.5604L29.6231 36.0148ZM32.2235 37.5661L33.6569 40.0489C33.7655 40.237 34.0075 40.3019 34.1956 40.1933L34.9056 39.7833C35.0937 39.6747 35.1586 39.4327 35.05 39.2446L33.832 37.135L32.2235 37.5661ZM40.1635 14.6445H29.1997C28.7994 14.6445 28.4719 14.9722 28.4719 15.3724V22.3045C28.4719 22.7047 28.7995 23.0323 29.1997 23.0323H35.8012L37.3052 24.1895L38.9275 25.4377V23.0323H40.1634C40.5637 23.0323 40.8912 22.7047 40.8912 22.3045V15.3724C40.8913 14.9721 40.5638 14.6445 40.1635 14.6445ZM30.855 17.0328C30.6123 17.0328 30.4155 16.8361 30.4155 16.5934C30.4155 16.3507 30.6123 16.1539 30.855 16.1539H38.5083C38.751 16.1539 38.9477 16.3507 38.9477 16.5934C38.9477 16.8361 38.751 17.0328 38.5083 17.0328H30.855ZM30.855 21.523C30.6123 21.523 30.4155 21.3263 30.4155 21.0836C30.4155 20.8409 30.6123 20.6441 30.855 20.6441H38.5083C38.751 20.6441 38.9477 20.8409 38.9477 21.0836C38.9477 21.3263 38.751 21.523 38.5083 21.523H30.855ZM30.855 19.2779C30.6123 19.2779 30.4155 19.0811 30.4155 18.8384C30.4155 18.5957 30.6123 18.399 30.855 18.399H38.5083C38.751 18.399 38.9477 18.5957 38.9477 18.8384C38.9477 19.0811 38.751 19.2779 38.5083 19.2779H30.855ZM26.0604 17.5446C25.6601 17.5446 25.3326 17.8722 25.3326 18.2725V25.2045C25.3326 25.6048 25.6602 25.9324 26.0604 25.9324H27.2964V28.3377L28.9187 27.0896L30.4227 25.9324H37.0242C37.2927 25.9324 37.5284 25.785 37.6546 25.5672L35.5022 23.9112H29.1997C28.3144 23.9112 27.593 23.1898 27.593 22.3045V17.5446H26.0604ZM15.8145 43.3555H28.8226V40.2386C28.8226 37.9178 27.3745 35.9189 25.3373 35.1005C24.513 35.7624 23.4626 36.1593 22.3185 36.1593C21.1744 36.1593 20.1241 35.7624 19.2998 35.1005C17.2626 35.9189 15.8145 37.9178 15.8145 40.2386V43.3555H15.8145Z" fill="#F2F7E0"/>
</g>
<defs>
<linearGradient id="paint0_linear_4877_6381" x1="30" y1="0" x2="30" y2="60" gradientUnits="userSpaceOnUse">
<stop stop-color="#2789D0"/>
<stop offset="1" stop-color="#2E3094"/>
</linearGradient>
<clipPath id="clip0_4877_6381">
<rect width="30" height="30" fill="white" transform="translate(15 14)"/>
</clipPath>
</defs>
</svg>
